<svg xmlns="http://www.w3.org/2000/svg" id="export" class="canvas" preserveAspectRatio="xMidYMid meet" style="" width="120" height="816"><rect id="background" fill="#fff" pointer-events="all" width="120" height="816"/><g id="origin" transform="translate(5.4105468750000005, 5.4105468750000005) scale(1)"><g id="clusters" class="clusters"/><g id="edge-paths" class="edge-paths"><defs><marker id="arrowhead" viewBox="0 0 10 10" refX="9" refY="5" markerUnits="strokeWidth" markerWidth="8" markerHeight="6" orient="auto" style="fill: rgb(0, 0, 0);"><path d="M 0 0 L 10 5 L 0 10 L 4 5 z" style="stroke-width: 1;"/></marker><marker id="arrowhead-select" viewBox="0 0 10 10" refX="9" refY="5" markerUnits="strokeWidth" markerWidth="8" markerHeight="6" orient="auto" style="fill: rgb(238, 0, 0);"><path d="M 0 0 L 10 5 L 0 10 L 4 5 z" style="stroke-width: 1;"/></marker><marker id="arrowhead-hover" viewBox="0 0 10 10" refX="9" refY="5" markerUnits="strokeWidth" markerWidth="8" markerHeight="6" orient="auto"><path d="M 0 0 L 10 5 L 0 10 L 4 5 z" style="stroke-width: 1;"/></marker></defs><path id="edge-input.1" class="edge-path" d="M48.132816314697266,20.96875L48.132816314697266,22.635416666666668C48.132816314697266,24.302083333333332,48.132816314697266,27.635416666666668,48.132816314697266,32.783854166666664C48.132816314697266,37.932291666666664,48.132816314697266,44.895833333333336,48.132816314697266,51.859375C48.132816314697266,58.822916666666664,48.132816314697266,65.78645833333333,48.132816314697266,70.93489583333333C48.132816314697266,76.08333333333333,48.132816314697266,79.41666666666667,48.132816314697266,81.08333333333333L48.132816314697266,82.75" style="stroke: rgb(0, 0, 0); stroke-width: 1px; fill: none; marker-end: url(&quot;#arrowhead&quot;);"/><path class="edge-path-hit-test" d="M48.132816314697266,20.96875L48.132816314697266,22.635416666666668C48.132816314697266,24.302083333333332,48.132816314697266,27.635416666666668,48.132816314697266,32.783854166666664C48.132816314697266,37.932291666666664,48.132816314697266,44.895833333333336,48.132816314697266,51.859375C48.132816314697266,58.822916666666664,48.132816314697266,65.78645833333333,48.132816314697266,70.93489583333333C48.132816314697266,76.08333333333333,48.132816314697266,79.41666666666667,48.132816314697266,81.08333333333333L48.132816314697266,82.75" style="pointer-events: stroke; stroke-width: 0.5em; fill: none; stroke: rgb(0, 0, 0); stroke-opacity: 0.001;"/><path id="edge-/encoder/encoder.0/Conv_output_0" class="edge-path" d="M48.132816314697266,134.9375L48.132816314697266,136.60416666666666C48.132816314697266,138.27083333333334,48.132816314697266,141.60416666666666,48.132816314697266,144.9375C48.132816314697266,148.27083333333334,48.132816314697266,151.60416666666666,48.132816314697266,153.27083333333334L48.132816314697266,154.9375" style="stroke: rgb(0, 0, 0); stroke-width: 1px; fill: none; marker-end: url(&quot;#arrowhead&quot;);"/><path class="edge-path-hit-test" d="M48.132816314697266,134.9375L48.132816314697266,136.60416666666666C48.132816314697266,138.27083333333334,48.132816314697266,141.60416666666666,48.132816314697266,144.9375C48.132816314697266,148.27083333333334,48.132816314697266,151.60416666666666,48.132816314697266,153.27083333333334L48.132816314697266,154.9375" style="pointer-events: stroke; stroke-width: 0.5em; fill: none; stroke: rgb(0, 0, 0); stroke-opacity: 0.001;"/><path id="edge-/encoder/encoder.1/Relu_output_0" class="edge-path" d="M48.132816314697266,175.90625L48.132816314697266,177.57291666666666C48.132816314697266,179.23958333333334,48.132816314697266,182.57291666666666,48.132816314697266,185.90625C48.132816314697266,189.23958333333334,48.132816314697266,192.57291666666666,48.132816314697266,194.23958333333334L48.132816314697266,195.90625" style="stroke: rgb(0, 0, 0); stroke-width: 1px; fill: none; marker-end: url(&quot;#arrowhead&quot;);"/><path class="edge-path-hit-test" d="M48.132816314697266,175.90625L48.132816314697266,177.57291666666666C48.132816314697266,179.23958333333334,48.132816314697266,182.57291666666666,48.132816314697266,185.90625C48.132816314697266,189.23958333333334,48.132816314697266,192.57291666666666,48.132816314697266,194.23958333333334L48.132816314697266,195.90625" style="pointer-events: stroke; stroke-width: 0.5em; fill: none; stroke: rgb(0, 0, 0); stroke-opacity: 0.001;"/><path id="edge-/encoder/encoder.2/Conv_output_0" class="edge-path" d="M48.132816314697266,248.09375L48.132816314697266,249.76041666666666C48.132816314697266,251.42708333333334,48.132816314697266,254.76041666666666,48.132816314697266,258.09375C48.132816314697266,261.4270833333333,48.132816314697266,264.7604166666667,48.132816314697266,266.4270833333333L48.132816314697266,268.09375" style="stroke: rgb(0, 0, 0); stroke-width: 1px; fill: none; marker-end: url(&quot;#arrowhead&quot;);"/><path class="edge-path-hit-test" d="M48.132816314697266,248.09375L48.132816314697266,249.76041666666666C48.132816314697266,251.42708333333334,48.132816314697266,254.76041666666666,48.132816314697266,258.09375C48.132816314697266,261.4270833333333,48.132816314697266,264.7604166666667,48.132816314697266,266.4270833333333L48.132816314697266,268.09375" style="pointer-events: stroke; stroke-width: 0.5em; fill: none; stroke: rgb(0, 0, 0); stroke-opacity: 0.001;"/><path id="edge-/encoder/encoder.3/Relu_output_0" class="edge-path" d="M48.132816314697266,289.0625L48.132816314697266,290.7291666666667C48.132816314697266,292.3958333333333,48.132816314697266,295.7291666666667,48.132816314697266,299.0625C48.132816314697266,302.3958333333333,48.132816314697266,305.7291666666667,48.132816314697266,307.3958333333333L48.132816314697266,309.0625" style="stroke: rgb(0, 0, 0); stroke-width: 1px; fill: none; marker-end: url(&quot;#arrowhead&quot;);"/><path class="edge-path-hit-test" d="M48.132816314697266,289.0625L48.132816314697266,290.7291666666667C48.132816314697266,292.3958333333333,48.132816314697266,295.7291666666667,48.132816314697266,299.0625C48.132816314697266,302.3958333333333,48.132816314697266,305.7291666666667,48.132816314697266,307.3958333333333L48.132816314697266,309.0625" style="pointer-events: stroke; stroke-width: 0.5em; fill: none; stroke: rgb(0, 0, 0); stroke-opacity: 0.001;"/><path id="edge-/encoder/encoder.4/MaxPool_output_0" class="edge-path" d="M48.132816314697266,330.03125L48.132816314697266,331.6979166666667C48.132816314697266,333.3645833333333,48.132816314697266,336.6979166666667,48.132816314697266,340.03125C48.132816314697266,343.3645833333333,48.132816314697266,346.6979166666667,48.132816314697266,348.3645833333333L48.132816314697266,350.03125" style="stroke: rgb(0, 0, 0); stroke-width: 1px; fill: none; marker-end: url(&quot;#arrowhead&quot;);"/><path class="edge-path-hit-test" d="M48.132816314697266,330.03125L48.132816314697266,331.6979166666667C48.132816314697266,333.3645833333333,48.132816314697266,336.6979166666667,48.132816314697266,340.03125C48.132816314697266,343.3645833333333,48.132816314697266,346.6979166666667,48.132816314697266,348.3645833333333L48.132816314697266,350.03125" style="pointer-events: stroke; stroke-width: 0.5em; fill: none; stroke: rgb(0, 0, 0); stroke-opacity: 0.001;"/><path id="edge-/bottleneck/bottleneck.0/Conv_output_0" class="edge-path" d="M48.132816314697266,402.21875L48.132816314697266,403.8854166666667C48.132816314697266,405.5520833333333,48.132816314697266,408.8854166666667,48.132816314697266,412.21875C48.132816314697266,415.5520833333333,48.132816314697266,418.8854166666667,48.132816314697266,420.5520833333333L48.132816314697266,422.21875" style="stroke: rgb(0, 0, 0); stroke-width: 1px; fill: none; marker-end: url(&quot;#arrowhead&quot;);"/><path class="edge-path-hit-test" d="M48.132816314697266,402.21875L48.132816314697266,403.8854166666667C48.132816314697266,405.5520833333333,48.132816314697266,408.8854166666667,48.132816314697266,412.21875C48.132816314697266,415.5520833333333,48.132816314697266,418.8854166666667,48.132816314697266,420.5520833333333L48.132816314697266,422.21875" style="pointer-events: stroke; stroke-width: 0.5em; fill: none; stroke: rgb(0, 0, 0); stroke-opacity: 0.001;"/><path id="edge-/bottleneck/bottleneck.1/Relu_output_0" class="edge-path" d="M48.132816314697266,443.1875L48.132816314697266,444.8541666666667C48.132816314697266,446.5208333333333,48.132816314697266,449.8541666666667,48.132816314697266,453.1875C48.132816314697266,456.5208333333333,48.132816314697266,459.8541666666667,48.132816314697266,461.5208333333333L48.132816314697266,463.1875" style="stroke: rgb(0, 0, 0); stroke-width: 1px; fill: none; marker-end: url(&quot;#arrowhead&quot;);"/><path class="edge-path-hit-test" d="M48.132816314697266,443.1875L48.132816314697266,444.8541666666667C48.132816314697266,446.5208333333333,48.132816314697266,449.8541666666667,48.132816314697266,453.1875C48.132816314697266,456.5208333333333,48.132816314697266,459.8541666666667,48.132816314697266,461.5208333333333L48.132816314697266,463.1875" style="pointer-events: stroke; stroke-width: 0.5em; fill: none; stroke: rgb(0, 0, 0); stroke-opacity: 0.001;"/><path id="edge-/decoder/decoder.0/ConvTranspose_output_0" class="edge-path" d="M48.132816314697266,515.375L48.132816314697266,517.0416666666666C48.132816314697266,518.7083333333334,48.132816314697266,522.0416666666666,48.132816314697266,525.375C48.132816314697266,528.7083333333334,48.132816314697266,532.0416666666666,48.132816314697266,533.7083333333334L48.132816314697266,535.375" style="stroke: rgb(0, 0, 0); stroke-width: 1px; fill: none; marker-end: url(&quot;#arrowhead&quot;);"/><path class="edge-path-hit-test" d="M48.132816314697266,515.375L48.132816314697266,517.0416666666666C48.132816314697266,518.7083333333334,48.132816314697266,522.0416666666666,48.132816314697266,525.375C48.132816314697266,528.7083333333334,48.132816314697266,532.0416666666666,48.132816314697266,533.7083333333334L48.132816314697266,535.375" style="pointer-events: stroke; stroke-width: 0.5em; fill: none; stroke: rgb(0, 0, 0); stroke-opacity: 0.001;"/><path id="edge-/decoder/decoder.1/Relu_output_0" class="edge-path" d="M48.132816314697266,556.34375L48.132816314697266,558.0104166666666C48.132816314697266,559.6770833333334,48.132816314697266,563.0104166666666,48.132816314697266,566.34375C48.132816314697266,569.6770833333334,48.132816314697266,573.0104166666666,48.132816314697266,574.6770833333334L48.132816314697266,576.34375" style="stroke: rgb(0, 0, 0); stroke-width: 1px; fill: none; marker-end: url(&quot;#arrowhead&quot;);"/><path class="edge-path-hit-test" d="M48.132816314697266,556.34375L48.132816314697266,558.0104166666666C48.132816314697266,559.6770833333334,48.132816314697266,563.0104166666666,48.132816314697266,566.34375C48.132816314697266,569.6770833333334,48.132816314697266,573.0104166666666,48.132816314697266,574.6770833333334L48.132816314697266,576.34375" style="pointer-events: stroke; stroke-width: 0.5em; fill: none; stroke: rgb(0, 0, 0); stroke-opacity: 0.001;"/><path id="edge-/decoder/decoder.2/ConvTranspose_output_0" class="edge-path" d="M48.132816314697266,628.53125L48.132816314697266,630.1979166666666C48.132816314697266,631.8645833333334,48.132816314697266,635.1979166666666,48.132816314697266,638.53125C48.132816314697266,641.8645833333334,48.132816314697266,645.1979166666666,48.132816314697266,646.8645833333334L48.132816314697266,648.53125" style="stroke: rgb(0, 0, 0); stroke-width: 1px; fill: none; marker-end: url(&quot;#arrowhead&quot;);"/><path class="edge-path-hit-test" d="M48.132816314697266,628.53125L48.132816314697266,630.1979166666666C48.132816314697266,631.8645833333334,48.132816314697266,635.1979166666666,48.132816314697266,638.53125C48.132816314697266,641.8645833333334,48.132816314697266,645.1979166666666,48.132816314697266,646.8645833333334L48.132816314697266,648.53125" style="pointer-events: stroke; stroke-width: 0.5em; fill: none; stroke: rgb(0, 0, 0); stroke-opacity: 0.001;"/><path id="edge-/decoder/decoder.3/Relu_output_0" class="edge-path" d="M48.132816314697266,669.5L48.132816314697266,671.1666666666666C48.132816314697266,672.8333333333334,48.132816314697266,676.1666666666666,48.132816314697266,679.5C48.132816314697266,682.8333333333334,48.132816314697266,686.1666666666666,48.132816314697266,687.8333333333334L48.132816314697266,689.5" style="stroke: rgb(0, 0, 0); stroke-width: 1px; fill: none; marker-end: url(&quot;#arrowhead&quot;);"/><path class="edge-path-hit-test" d="M48.132816314697266,669.5L48.132816314697266,671.1666666666666C48.132816314697266,672.8333333333334,48.132816314697266,676.1666666666666,48.132816314697266,679.5C48.132816314697266,682.8333333333334,48.132816314697266,686.1666666666666,48.132816314697266,687.8333333333334L48.132816314697266,689.5" style="pointer-events: stroke; stroke-width: 0.5em; fill: none; stroke: rgb(0, 0, 0); stroke-opacity: 0.001;"/><path id="edge-24" class="edge-path" d="M48.132816314697266,741.6875L48.132816314697266,745.1692708333334C48.132816314697266,748.6510416666666,48.132816314697266,755.6145833333334,48.132816314697266,762.578125C48.132816314697266,769.5416666666666,48.132816314697266,776.5052083333334,48.132816314697266,779.9869791666666L48.132816314697266,783.46875" style="stroke: rgb(0, 0, 0); stroke-width: 1px; fill: none; marker-end: url(&quot;#arrowhead&quot;);"/><path class="edge-path-hit-test" d="M48.132816314697266,741.6875L48.132816314697266,745.1692708333334C48.132816314697266,748.6510416666666,48.132816314697266,755.6145833333334,48.132816314697266,762.578125C48.132816314697266,769.5416666666666,48.132816314697266,776.5052083333334,48.132816314697266,779.9869791666666L48.132816314697266,783.46875" style="pointer-events: stroke; stroke-width: 0.5em; fill: none; stroke: rgb(0, 0, 0); stroke-opacity: 0.001;"/></g><g id="edge-labels" class="edge-labels"><text class="edge-label" id="edge-label-edge-input.1" transform="translate(53.132816314697266,45.96875)" style="opacity: 1; font-family: -apple-system, BlinkMacSystemFont, &quot;Segoe WPC&quot;, &quot;Segoe UI&quot;, Ubuntu, &quot;Droid Sans&quot;, sans-serif, &quot;PingFang SC&quot;; font-size: 10px;"><tspan xml:space="preserve" dy="1em" x="1">1×1×7×7</tspan></text><text class="edge-label" id="edge-label-edge-24" transform="translate(53.132816314697266,756.6875)" style="opacity: 1; font-family: -apple-system, BlinkMacSystemFont, &quot;Segoe WPC&quot;, &quot;Segoe UI&quot;, Ubuntu, &quot;Droid Sans&quot;, sans-serif, &quot;PingFang SC&quot;; font-size: 10px;"><tspan xml:space="preserve" dy="1em" x="1">1×1×28×28</tspan></text></g><g id="nodes" class="nodes"><g id="input-name-input.1" class="node graph-input" transform="translate(23.585941314697266,0)" style="opacity: 1;"><g class="node-item graph-item-input" transform="translate(0,0)"><path d="M5,0h39.09375a5,5 0 0 1 5,5v10.96875a5,5 0 0 1 -5,5h-39.09375a5,5 0 0 1 -5,-5v-10.96875a5,5 0 0 1 5,-5z" style="stroke: rgb(0, 0, 0); fill: rgb(238, 238, 238); stroke-width: 0px;"/><text x="6" y="14.640625" style="font-family: -apple-system, BlinkMacSystemFont, &quot;Segoe WPC&quot;, &quot;Segoe UI&quot;, Ubuntu, &quot;Droid Sans&quot;, sans-serif, &quot;PingFang SC&quot;; font-size: 11px; text-rendering: geometricprecision;">input.1</text><title>float32[1,1,7,7]</title></g><path class="node border" d="M5,0h39.09375a5,5 0 0 1 5,5v10.96875a5,5 0 0 1 -5,5h-39.09375a5,5 0 0 1 -5,-5v-10.96875a5,5 0 0 1 5,-5z" style="stroke: rgb(51, 51, 51); fill: none; stroke-width: 1px;"/></g><g id="node-name-/encoder/encoder.0/Conv" class="node graph-node" transform="translate(6.453128814697266,82.75)" style="opacity: 1;"><g class="node-item node-item-type node-item-type-layer" transform="translate(0,0)"><path d="M5,0h73.359375a5,5 0 0 1 5,5v15.96875a0,0 0 0 1 0,0h-83.359375a0,0 0 0 1 0,0v-15.96875a5,5 0 0 1 5,-5z" style="stroke: rgb(0, 0, 0); fill: rgb(51, 85, 136); stroke-width: 0px;"/><text x="6" y="14.640625" style="font-family: -apple-system, BlinkMacSystemFont, &quot;Segoe WPC&quot;, &quot;Segoe UI&quot;, Ubuntu, &quot;Droid Sans&quot;, sans-serif, &quot;PingFang SC&quot;; font-size: 11px; text-rendering: geometricprecision; fill: rgb(255, 255, 255);">Conv</text><title>/encoder/encoder.0/Conv</title></g><g class="node-attribute" transform="translate(0,20.96875)"><path d="M0,0h83.359375a0,0 0 0 1 0,0v26.21875a5,5 0 0 1 -5,5h-73.359375a5,5 0 0 1 -5,-5v-26.21875a0,0 0 0 1 0,0z" style="stroke: rgb(0, 0, 0); fill: rgb(255, 255, 255); stroke-width: 0px;"/><text id="initializer-encoder.0.weight" xml:space="preserve" x="6" y="12.703125" style="font-family: -apple-system, BlinkMacSystemFont, &quot;Segoe WPC&quot;, &quot;Segoe UI&quot;, Ubuntu, &quot;Droid Sans&quot;, sans-serif, &quot;PingFang SC&quot;; font-size: 9px; font-weight: normal; text-rendering: geometricprecision;"><title>float32[16,1,3,3]</title><tspan style="font-weight: bold;">W</tspan><tspan>〈16×1×3×3〉</tspan></text><text id="initializer-encoder.0.bias" xml:space="preserve" x="6" y="25.3125" style="font-family: -apple-system, BlinkMacSystemFont, &quot;Segoe WPC&quot;, &quot;Segoe UI&quot;, Ubuntu, &quot;Droid Sans&quot;, sans-serif, &quot;PingFang SC&quot;; font-size: 9px; font-weight: normal; text-rendering: geometricprecision;"><title>float32[16]</title><tspan style="font-weight: bold;">B</tspan><tspan>〈16〉</tspan></text><line class="node" x1="0" x2="83.359375" y1="0" y2="0" style="stroke: rgb(51, 51, 51); fill: none; stroke-width: 1px;"/></g><path class="node border" d="M5,0h73.359375a5,5 0 0 1 5,5v42.1875a5,5 0 0 1 -5,5h-73.359375a5,5 0 0 1 -5,-5v-42.1875a5,5 0 0 1 5,-5z" style="stroke: rgb(51, 51, 51); fill: none; stroke-width: 1px;"/></g><g id="node-name-/encoder/encoder.1/Relu" class="node graph-node" transform="translate(29.664066314697266,154.9375)" style="opacity: 1;"><g class="node-item node-item-type node-item-type-activation" transform="translate(0,0)"><path d="M5,0h26.9375a5,5 0 0 1 5,5v10.96875a5,5 0 0 1 -5,5h-26.9375a5,5 0 0 1 -5,-5v-10.96875a5,5 0 0 1 5,-5z" style="stroke: rgb(0, 0, 0); fill: rgb(112, 41, 33); stroke-width: 0px;"/><text x="6" y="14.640625" style="font-family: -apple-system, BlinkMacSystemFont, &quot;Segoe WPC&quot;, &quot;Segoe UI&quot;, Ubuntu, &quot;Droid Sans&quot;, sans-serif, &quot;PingFang SC&quot;; font-size: 11px; text-rendering: geometricprecision; fill: rgb(255, 255, 255);">Relu</text><title>/encoder/encoder.1/Relu</title></g><path class="node border" d="M5,0h26.9375a5,5 0 0 1 5,5v10.96875a5,5 0 0 1 -5,5h-26.9375a5,5 0 0 1 -5,-5v-10.96875a5,5 0 0 1 5,-5z" style="stroke: rgb(51, 51, 51); fill: none; stroke-width: 1px;"/></g><g id="node-name-/encoder/encoder.2/Conv" class="node graph-node" transform="translate(2.9218788146972656,195.90625)" style="opacity: 1;"><g class="node-item node-item-type node-item-type-layer" transform="translate(0,0)"><path d="M5,0h80.421875a5,5 0 0 1 5,5v15.96875a0,0 0 0 1 0,0h-90.421875a0,0 0 0 1 0,0v-15.96875a5,5 0 0 1 5,-5z" style="stroke: rgb(0, 0, 0); fill: rgb(51, 85, 136); stroke-width: 0px;"/><text x="6" y="14.640625" style="font-family: -apple-system, BlinkMacSystemFont, &quot;Segoe WPC&quot;, &quot;Segoe UI&quot;, Ubuntu, &quot;Droid Sans&quot;, sans-serif, &quot;PingFang SC&quot;; font-size: 11px; text-rendering: geometricprecision; fill: rgb(255, 255, 255);">Conv</text><title>/encoder/encoder.2/Conv</title></g><g class="node-attribute" transform="translate(0,20.96875)"><path d="M0,0h90.421875a0,0 0 0 1 0,0v26.21875a5,5 0 0 1 -5,5h-80.421875a5,5 0 0 1 -5,-5v-26.21875a0,0 0 0 1 0,0z" style="stroke: rgb(0, 0, 0); fill: rgb(255, 255, 255); stroke-width: 0px;"/><text id="initializer-encoder.2.weight" xml:space="preserve" x="6" y="12.703125" style="font-family: -apple-system, BlinkMacSystemFont, &quot;Segoe WPC&quot;, &quot;Segoe UI&quot;, Ubuntu, &quot;Droid Sans&quot;, sans-serif, &quot;PingFang SC&quot;; font-size: 9px; font-weight: normal; text-rendering: geometricprecision;"><title>float32[32,16,3,3]</title><tspan style="font-weight: bold;">W</tspan><tspan>〈32×16×3×3〉</tspan></text><text id="initializer-encoder.2.bias" xml:space="preserve" x="6" y="25.3125" style="font-family: -apple-system, BlinkMacSystemFont, &quot;Segoe WPC&quot;, &quot;Segoe UI&quot;, Ubuntu, &quot;Droid Sans&quot;, sans-serif, &quot;PingFang SC&quot;; font-size: 9px; font-weight: normal; text-rendering: geometricprecision;"><title>float32[32]</title><tspan style="font-weight: bold;">B</tspan><tspan>〈32〉</tspan></text><line class="node" x1="0" x2="90.421875" y1="0" y2="0" style="stroke: rgb(51, 51, 51); fill: none; stroke-width: 1px;"/></g><path class="node border" d="M5,0h80.421875a5,5 0 0 1 5,5v42.1875a5,5 0 0 1 -5,5h-80.421875a5,5 0 0 1 -5,-5v-42.1875a5,5 0 0 1 5,-5z" style="stroke: rgb(51, 51, 51); fill: none; stroke-width: 1px;"/></g><g id="node-name-/encoder/encoder.3/Relu" class="node graph-node" transform="translate(29.664066314697266,268.09375)" style="opacity: 1;"><g class="node-item node-item-type node-item-type-activation" transform="translate(0,0)"><path d="M5,0h26.9375a5,5 0 0 1 5,5v10.96875a5,5 0 0 1 -5,5h-26.9375a5,5 0 0 1 -5,-5v-10.96875a5,5 0 0 1 5,-5z" style="stroke: rgb(0, 0, 0); fill: rgb(112, 41, 33); stroke-width: 0px;"/><text x="6" y="14.640625" style="font-family: -apple-system, BlinkMacSystemFont, &quot;Segoe WPC&quot;, &quot;Segoe UI&quot;, Ubuntu, &quot;Droid Sans&quot;, sans-serif, &quot;PingFang SC&quot;; font-size: 11px; text-rendering: geometricprecision; fill: rgb(255, 255, 255);">Relu</text><title>/encoder/encoder.3/Relu</title></g><path class="node border" d="M5,0h26.9375a5,5 0 0 1 5,5v10.96875a5,5 0 0 1 -5,5h-26.9375a5,5 0 0 1 -5,-5v-10.96875a5,5 0 0 1 5,-5z" style="stroke: rgb(51, 51, 51); fill: none; stroke-width: 1px;"/></g><g id="node-name-/encoder/encoder.4/MaxPool" class="node graph-node" transform="translate(18.796878814697266,309.0625)" style="opacity: 1;"><g class="node-item node-item-type node-item-type-pool" transform="translate(0,0)"><path d="M5,0h48.671875a5,5 0 0 1 5,5v10.96875a5,5 0 0 1 -5,5h-48.671875a5,5 0 0 1 -5,-5v-10.96875a5,5 0 0 1 5,-5z" style="stroke: rgb(0, 0, 0); fill: rgb(51, 85, 51); stroke-width: 0px;"/><text x="6" y="14.640625" style="font-family: -apple-system, BlinkMacSystemFont, &quot;Segoe WPC&quot;, &quot;Segoe UI&quot;, Ubuntu, &quot;Droid Sans&quot;, sans-serif, &quot;PingFang SC&quot;; font-size: 11px; text-rendering: geometricprecision; fill: rgb(255, 255, 255);">MaxPool</text><title>/encoder/encoder.4/MaxPool</title></g><path class="node border" d="M5,0h48.671875a5,5 0 0 1 5,5v10.96875a5,5 0 0 1 -5,5h-48.671875a5,5 0 0 1 -5,-5v-10.96875a5,5 0 0 1 5,-5z" style="stroke: rgb(51, 51, 51); fill: none; stroke-width: 1px;"/></g><g id="node-name-/bottleneck/bottleneck.0/Conv" class="node graph-node" transform="translate(2.109375,350.03125)" style="opacity: 1;"><g class="node-item node-item-type node-item-type-layer" transform="translate(0,0)"><path d="M5,0h82.046875a5,5 0 0 1 5,5v15.96875a0,0 0 0 1 0,0h-92.046875a0,0 0 0 1 0,0v-15.96875a5,5 0 0 1 5,-5z" style="stroke: rgb(0, 0, 0); fill: rgb(51, 85, 136); stroke-width: 0px;"/><text x="6" y="14.640625" style="font-family: -apple-system, BlinkMacSystemFont, &quot;Segoe WPC&quot;, &quot;Segoe UI&quot;, Ubuntu, &quot;Droid Sans&quot;, sans-serif, &quot;PingFang SC&quot;; font-size: 11px; text-rendering: geometricprecision; fill: rgb(255, 255, 255);">Conv</text><title>/bottleneck/bottleneck.0/Conv</title></g><g class="node-attribute" transform="translate(0,20.96875)"><path d="M0,0h92.046875a0,0 0 0 1 0,0v26.21875a5,5 0 0 1 -5,5h-82.046875a5,5 0 0 1 -5,-5v-26.21875a0,0 0 0 1 0,0z" style="stroke: rgb(0, 0, 0); fill: rgb(255, 255, 255); stroke-width: 0px;"/><text id="initializer-bottleneck.0.weight" xml:space="preserve" x="6" y="12.703125" style="font-family: -apple-system, BlinkMacSystemFont, &quot;Segoe WPC&quot;, &quot;Segoe UI&quot;, Ubuntu, &quot;Droid Sans&quot;, sans-serif, &quot;PingFang SC&quot;; font-size: 9px; font-weight: normal; text-rendering: geometricprecision;"><title>float32[64,32,3,3]</title><tspan style="font-weight: bold;">W</tspan><tspan>〈64×32×3×3〉</tspan></text><text id="initializer-bottleneck.0.bias" xml:space="preserve" x="6" y="25.3125" style="font-family: -apple-system, BlinkMacSystemFont, &quot;Segoe WPC&quot;, &quot;Segoe UI&quot;, Ubuntu, &quot;Droid Sans&quot;, sans-serif, &quot;PingFang SC&quot;; font-size: 9px; font-weight: normal; text-rendering: geometricprecision;"><title>float32[64]</title><tspan style="font-weight: bold;">B</tspan><tspan>〈64〉</tspan></text><line class="node" x1="0" x2="92.046875" y1="0" y2="0" style="stroke: rgb(51, 51, 51); fill: none; stroke-width: 1px;"/></g><path class="node border" d="M5,0h82.046875a5,5 0 0 1 5,5v42.1875a5,5 0 0 1 -5,5h-82.046875a5,5 0 0 1 -5,-5v-42.1875a5,5 0 0 1 5,-5z" style="stroke: rgb(51, 51, 51); fill: none; stroke-width: 1px;"/></g><g id="node-name-/bottleneck/bottleneck.1/Relu" class="node graph-node" transform="translate(29.664066314697266,422.21875)" style="opacity: 1;"><g class="node-item node-item-type node-item-type-activation" transform="translate(0,0)"><path d="M5,0h26.9375a5,5 0 0 1 5,5v10.96875a5,5 0 0 1 -5,5h-26.9375a5,5 0 0 1 -5,-5v-10.96875a5,5 0 0 1 5,-5z" style="stroke: rgb(0, 0, 0); fill: rgb(112, 41, 33); stroke-width: 0px;"/><text x="6" y="14.640625" style="font-family: -apple-system, BlinkMacSystemFont, &quot;Segoe WPC&quot;, &quot;Segoe UI&quot;, Ubuntu, &quot;Droid Sans&quot;, sans-serif, &quot;PingFang SC&quot;; font-size: 11px; text-rendering: geometricprecision; fill: rgb(255, 255, 255);">Relu</text><title>/bottleneck/bottleneck.1/Relu</title></g><path class="node border" d="M5,0h26.9375a5,5 0 0 1 5,5v10.96875a5,5 0 0 1 -5,5h-26.9375a5,5 0 0 1 -5,-5v-10.96875a5,5 0 0 1 5,-5z" style="stroke: rgb(51, 51, 51); fill: none; stroke-width: 1px;"/></g><g id="node-name-/decoder/decoder.0/ConvTranspose" class="node graph-node" transform="translate(0,463.1875)" style="opacity: 1;"><g class="node-item node-item-type node-item-type-layer" transform="translate(0,0)"><path d="M5,0h86.265625a5,5 0 0 1 5,5v15.96875a0,0 0 0 1 0,0h-96.265625a0,0 0 0 1 0,0v-15.96875a5,5 0 0 1 5,-5z" style="stroke: rgb(0, 0, 0); fill: rgb(51, 85, 136); stroke-width: 0px;"/><text x="6" y="14.640625" style="font-family: -apple-system, BlinkMacSystemFont, &quot;Segoe WPC&quot;, &quot;Segoe UI&quot;, Ubuntu, &quot;Droid Sans&quot;, sans-serif, &quot;PingFang SC&quot;; font-size: 11px; text-rendering: geometricprecision; fill: rgb(255, 255, 255);">ConvTranspose</text><title>/decoder/decoder.0/ConvTranspose</title></g><g class="node-attribute" transform="translate(0,20.96875)"><path d="M0,0h96.265625a0,0 0 0 1 0,0v26.21875a5,5 0 0 1 -5,5h-86.265625a5,5 0 0 1 -5,-5v-26.21875a0,0 0 0 1 0,0z" style="stroke: rgb(0, 0, 0); fill: rgb(255, 255, 255); stroke-width: 0px;"/><text id="initializer-decoder.0.weight" xml:space="preserve" x="6" y="12.703125" style="font-family: -apple-system, BlinkMacSystemFont, &quot;Segoe WPC&quot;, &quot;Segoe UI&quot;, Ubuntu, &quot;Droid Sans&quot;, sans-serif, &quot;PingFang SC&quot;; font-size: 9px; font-weight: normal; text-rendering: geometricprecision;"><title>float32[64,32,4,4]</title><tspan style="font-weight: bold;">W</tspan><tspan>〈64×32×4×4〉</tspan></text><text id="initializer-decoder.0.bias" xml:space="preserve" x="6" y="25.3125" style="font-family: -apple-system, BlinkMacSystemFont, &quot;Segoe WPC&quot;, &quot;Segoe UI&quot;, Ubuntu, &quot;Droid Sans&quot;, sans-serif, &quot;PingFang SC&quot;; font-size: 9px; font-weight: normal; text-rendering: geometricprecision;"><title>float32[32]</title><tspan style="font-weight: bold;">B</tspan><tspan>〈32〉</tspan></text><line class="node" x1="0" x2="96.265625" y1="0" y2="0" style="stroke: rgb(51, 51, 51); fill: none; stroke-width: 1px;"/></g><path class="node border" d="M5,0h86.265625a5,5 0 0 1 5,5v42.1875a5,5 0 0 1 -5,5h-86.265625a5,5 0 0 1 -5,-5v-42.1875a5,5 0 0 1 5,-5z" style="stroke: rgb(51, 51, 51); fill: none; stroke-width: 1px;"/></g><g id="node-name-/decoder/decoder.1/Relu" class="node graph-node" transform="translate(29.664066314697266,535.375)" style="opacity: 1;"><g class="node-item node-item-type node-item-type-activation" transform="translate(0,0)"><path d="M5,0h26.9375a5,5 0 0 1 5,5v10.96875a5,5 0 0 1 -5,5h-26.9375a5,5 0 0 1 -5,-5v-10.96875a5,5 0 0 1 5,-5z" style="stroke: rgb(0, 0, 0); fill: rgb(112, 41, 33); stroke-width: 0px;"/><text x="6" y="14.640625" style="font-family: -apple-system, BlinkMacSystemFont, &quot;Segoe WPC&quot;, &quot;Segoe UI&quot;, Ubuntu, &quot;Droid Sans&quot;, sans-serif, &quot;PingFang SC&quot;; font-size: 11px; text-rendering: geometricprecision; fill: rgb(255, 255, 255);">Relu</text><title>/decoder/decoder.1/Relu</title></g><path class="node border" d="M5,0h26.9375a5,5 0 0 1 5,5v10.96875a5,5 0 0 1 -5,5h-26.9375a5,5 0 0 1 -5,-5v-10.96875a5,5 0 0 1 5,-5z" style="stroke: rgb(51, 51, 51); fill: none; stroke-width: 1px;"/></g><g id="node-name-/decoder/decoder.2/ConvTranspose" class="node graph-node" transform="translate(0,576.34375)" style="opacity: 1;"><g class="node-item node-item-type node-item-type-layer" transform="translate(0,0)"><path d="M5,0h86.265625a5,5 0 0 1 5,5v15.96875a0,0 0 0 1 0,0h-96.265625a0,0 0 0 1 0,0v-15.96875a5,5 0 0 1 5,-5z" style="stroke: rgb(0, 0, 0); fill: rgb(51, 85, 136); stroke-width: 0px;"/><text x="6" y="14.640625" style="font-family: -apple-system, BlinkMacSystemFont, &quot;Segoe WPC&quot;, &quot;Segoe UI&quot;, Ubuntu, &quot;Droid Sans&quot;, sans-serif, &quot;PingFang SC&quot;; font-size: 11px; text-rendering: geometricprecision; fill: rgb(255, 255, 255);">ConvTranspose</text><title>/decoder/decoder.2/ConvTranspose</title></g><g class="node-attribute" transform="translate(0,20.96875)"><path d="M0,0h96.265625a0,0 0 0 1 0,0v26.21875a5,5 0 0 1 -5,5h-86.265625a5,5 0 0 1 -5,-5v-26.21875a0,0 0 0 1 0,0z" style="stroke: rgb(0, 0, 0); fill: rgb(255, 255, 255); stroke-width: 0px;"/><text id="initializer-decoder.2.weight" xml:space="preserve" x="6" y="12.703125" style="font-family: -apple-system, BlinkMacSystemFont, &quot;Segoe WPC&quot;, &quot;Segoe UI&quot;, Ubuntu, &quot;Droid Sans&quot;, sans-serif, &quot;PingFang SC&quot;; font-size: 9px; font-weight: normal; text-rendering: geometricprecision;"><title>float32[32,16,3,3]</title><tspan style="font-weight: bold;">W</tspan><tspan>〈32×16×3×3〉</tspan></text><text id="initializer-decoder.2.bias" xml:space="preserve" x="6" y="25.3125" style="font-family: -apple-system, BlinkMacSystemFont, &quot;Segoe WPC&quot;, &quot;Segoe UI&quot;, Ubuntu, &quot;Droid Sans&quot;, sans-serif, &quot;PingFang SC&quot;; font-size: 9px; font-weight: normal; text-rendering: geometricprecision;"><title>float32[16]</title><tspan style="font-weight: bold;">B</tspan><tspan>〈16〉</tspan></text><line class="node" x1="0" x2="96.265625" y1="0" y2="0" style="stroke: rgb(51, 51, 51); fill: none; stroke-width: 1px;"/></g><path class="node border" d="M5,0h86.265625a5,5 0 0 1 5,5v42.1875a5,5 0 0 1 -5,5h-86.265625a5,5 0 0 1 -5,-5v-42.1875a5,5 0 0 1 5,-5z" style="stroke: rgb(51, 51, 51); fill: none; stroke-width: 1px;"/></g><g id="node-name-/decoder/decoder.3/Relu" class="node graph-node" transform="translate(29.664066314697266,648.53125)" style="opacity: 1;"><g class="node-item node-item-type node-item-type-activation" transform="translate(0,0)"><path d="M5,0h26.9375a5,5 0 0 1 5,5v10.96875a5,5 0 0 1 -5,5h-26.9375a5,5 0 0 1 -5,-5v-10.96875a5,5 0 0 1 5,-5z" style="stroke: rgb(0, 0, 0); fill: rgb(112, 41, 33); stroke-width: 0px;"/><text x="6" y="14.640625" style="font-family: -apple-system, BlinkMacSystemFont, &quot;Segoe WPC&quot;, &quot;Segoe UI&quot;, Ubuntu, &quot;Droid Sans&quot;, sans-serif, &quot;PingFang SC&quot;; font-size: 11px; text-rendering: geometricprecision; fill: rgb(255, 255, 255);">Relu</text><title>/decoder/decoder.3/Relu</title></g><path class="node border" d="M5,0h26.9375a5,5 0 0 1 5,5v10.96875a5,5 0 0 1 -5,5h-26.9375a5,5 0 0 1 -5,-5v-10.96875a5,5 0 0 1 5,-5z" style="stroke: rgb(51, 51, 51); fill: none; stroke-width: 1px;"/></g><g id="node-name-/decoder/decoder.4/ConvTranspose" class="node graph-node" transform="translate(0,689.5)" style="opacity: 1;"><g class="node-item node-item-type node-item-type-layer" transform="translate(0,0)"><path d="M5,0h86.265625a5,5 0 0 1 5,5v15.96875a0,0 0 0 1 0,0h-96.265625a0,0 0 0 1 0,0v-15.96875a5,5 0 0 1 5,-5z" style="stroke: rgb(0, 0, 0); fill: rgb(51, 85, 136); stroke-width: 0px;"/><text x="6" y="14.640625" style="font-family: -apple-system, BlinkMacSystemFont, &quot;Segoe WPC&quot;, &quot;Segoe UI&quot;, Ubuntu, &quot;Droid Sans&quot;, sans-serif, &quot;PingFang SC&quot;; font-size: 11px; text-rendering: geometricprecision; fill: rgb(255, 255, 255);">ConvTranspose</text><title>/decoder/decoder.4/ConvTranspose</title></g><g class="node-attribute" transform="translate(0,20.96875)"><path d="M0,0h96.265625a0,0 0 0 1 0,0v26.21875a5,5 0 0 1 -5,5h-86.265625a5,5 0 0 1 -5,-5v-26.21875a0,0 0 0 1 0,0z" style="stroke: rgb(0, 0, 0); fill: rgb(255, 255, 255); stroke-width: 0px;"/><text id="initializer-decoder.4.weight" xml:space="preserve" x="6" y="12.703125" style="font-family: -apple-system, BlinkMacSystemFont, &quot;Segoe WPC&quot;, &quot;Segoe UI&quot;, Ubuntu, &quot;Droid Sans&quot;, sans-serif, &quot;PingFang SC&quot;; font-size: 9px; font-weight: normal; text-rendering: geometricprecision;"><title>float32[16,1,4,4]</title><tspan style="font-weight: bold;">W</tspan><tspan>〈16×1×4×4〉</tspan></text><text id="initializer-decoder.4.bias" xml:space="preserve" x="6" y="25.3125" style="font-family: -apple-system, BlinkMacSystemFont, &quot;Segoe WPC&quot;, &quot;Segoe UI&quot;, Ubuntu, &quot;Droid Sans&quot;, sans-serif, &quot;PingFang SC&quot;; font-size: 9px; font-weight: normal; text-rendering: geometricprecision;"><title>float32[1]</title><tspan style="font-weight: bold;">B</tspan><tspan>〈1〉</tspan></text><line class="node" x1="0" x2="96.265625" y1="0" y2="0" style="stroke: rgb(51, 51, 51); fill: none; stroke-width: 1px;"/></g><path class="node border" d="M5,0h86.265625a5,5 0 0 1 5,5v42.1875a5,5 0 0 1 -5,5h-86.265625a5,5 0 0 1 -5,-5v-42.1875a5,5 0 0 1 5,-5z" style="stroke: rgb(51, 51, 51); fill: none; stroke-width: 1px;"/></g><g class="node" transform="translate(34.203128814697266,783.46875)" style="opacity: 1;"><g class="node-item graph-item-output" transform="translate(0,0)"><path d="M5,0h17.859375a5,5 0 0 1 5,5v10.96875a5,5 0 0 1 -5,5h-17.859375a5,5 0 0 1 -5,-5v-10.96875a5,5 0 0 1 5,-5z" style="stroke: rgb(0, 0, 0); fill: rgb(238, 238, 238); stroke-width: 0px;"/><text x="6" y="14.640625" style="font-family: -apple-system, BlinkMacSystemFont, &quot;Segoe WPC&quot;, &quot;Segoe UI&quot;, Ubuntu, &quot;Droid Sans&quot;, sans-serif, &quot;PingFang SC&quot;; font-size: 11px; text-rendering: geometricprecision;">24</text><title>float32[1,1,28,28]</title></g><path class="node border" d="M5,0h17.859375a5,5 0 0 1 5,5v10.96875a5,5 0 0 1 -5,5h-17.859375a5,5 0 0 1 -5,-5v-10.96875a5,5 0 0 1 5,-5z" style="stroke: rgb(51, 51, 51); fill: none; stroke-width: 1px;"/></g></g></g></svg>